<?xml version="1.0" standalone="no"?>
<!DOCTYPE svg PUBLIC "-//W3C//DTD SVG 20010904//EN"
 "http://www.w3.org/TR/2001/REC-SVG-20010904/DTD/svg10.dtd">
<svg version="1.0" xmlns="http://www.w3.org/2000/svg"
 width="700.000000pt" height="700.000000pt" viewBox="0 0 700.000000 700.000000"
 preserveAspectRatio="xMidYMid meet">
<metadata>
Created by potrace 1.14, written by Peter Selinger 2001-2017
</metadata>
<g transform="translate(0.000000,700.000000) scale(0.100000,-0.100000)"
fill="#000000" stroke="none">
<path d="M3500 5502 l0 -1472 995 0 c547 0 995 -1 995 -3 0 -5 -70 -179 -86
-214 -8 -17 -14 -34 -14 -37 0 -6 -178 -462 -210 -536 -11 -25 -53 -133 -95
-240 -110 -279 -217 -552 -348 -885 -63 -159 -194 -492 -291 -740 -97 -247
-181 -459 -186 -470 -5 -11 -25 -60 -45 -110 l-35 -90 1395 1395 c767 767
1395 1397 1395 1400 0 4 -3429 3437 -3465 3469 -3 2 -5 -658 -5 -1467z"/>
<path d="M1415 4890 c-759 -759 -1381 -1383 -1383 -1388 -1 -4 779 -788 1733
-1742 l1735 -1735 0 1501 0 1502 -22 3 c-13 2 -460 4 -994 3 -878 0 -971 1
-967 15 7 21 102 261 113 286 5 11 30 74 55 140 26 66 51 129 56 140 5 11 77
191 159 400 83 209 157 394 164 410 8 17 17 41 21 55 4 14 11 30 15 35 3 6 15
33 25 60 9 28 23 64 31 80 17 39 244 607 248 620 2 6 8 21 13 35 6 14 45 113
88 220 42 107 83 209 90 225 7 17 30 73 49 125 20 52 41 104 46 115 20 43 110
275 107 275 -1 0 -623 -621 -1382 -1380z"/>
</g>
</svg>
